<svg width="12" height="17" viewBox="0 0 12 17" fill="none" xmlns="http://www.w3.org/2000/svg">
<path fill-rule="evenodd" clip-rule="evenodd" d="M1 6.54233C1 3.75393 3.24228 1.5 6.00027 1.5C8.75825 1.5 11.0005 3.75393 11.0005 6.54233C11.0005 7.19675 10.7306 8.09019 10.2677 9.10436C9.81108 10.1045 9.19199 11.1686 8.54961 12.1463C7.90762 13.1234 7.2496 14.0033 6.72063 14.6347C6.45516 14.9515 6.22887 15.1978 6.05792 15.3607C6.03733 15.3803 6.01811 15.3981 6.00026 15.4143C5.98241 15.3981 5.9632 15.3803 5.94262 15.3607C5.77166 15.1978 5.54537 14.9515 5.2799 14.6347C4.75093 14.0033 4.09291 13.1234 3.45093 12.1463C2.80854 11.1686 2.18945 10.1045 1.73286 9.10436C1.26988 8.09019 1 7.19675 1 6.54233ZM6.00027 0.5C2.68283 0.5 0 3.20884 0 6.54233C0 7.41838 0.345291 8.47284 0.823165 9.51964C1.30742 10.5804 1.95485 11.6904 2.61518 12.6954C3.2759 13.701 3.95677 14.6125 4.51337 15.2769C4.79068 15.6079 5.04385 15.8856 5.25283 16.0847C5.35626 16.1832 5.4591 16.2724 5.55582 16.3403C5.60408 16.3741 5.6608 16.4098 5.72303 16.4387C5.77827 16.4644 5.87745 16.5037 6.00027 16.5037C6.12308 16.5037 6.22226 16.4644 6.2775 16.4387C6.33973 16.4098 6.39645 16.3741 6.44471 16.3403C6.54143 16.2724 6.64427 16.1832 6.7477 16.0847C6.95669 15.8856 7.20985 15.6079 7.48716 15.2769C8.04376 14.6125 8.72463 13.701 9.38535 12.6954C10.0457 11.6904 10.6931 10.5804 11.1774 9.51964C11.6552 8.47284 12.0005 7.41838 12.0005 6.54233C12.0005 3.20884 9.31771 0.5 6.00027 0.5ZM6.00042 8.50189C7.01299 8.50189 7.83384 7.66222 7.83384 6.62643C7.83384 5.59065 7.01299 4.75098 6.00042 4.75098C4.98785 4.75098 4.167 5.59065 4.167 6.62643C4.167 7.66222 4.98785 8.50189 6.00042 8.50189Z" fill="#FF0000"/>
</svg>
